<svg xmlns="http://www.w3.org/2000/svg" viewBox="0 0 760.8 304.704"><defs><style>.a{fill:#44525a;}</style></defs><title>sundsvall_logo_large</title><path class="a" d="M34.1,28.3s-6.8,12.1,5.3,15.5c15.4,3.8,32,6.3,47.4,12.5,4.3,1.6-.4,5.7-3.3,5.6C56.8,54.7,31.3,45.5.6,46.7c6.8,8.3,17,19.6,19.2,30.8,10.7-8.6,27.3-13.3,40.4-6.3L44.7,76.5c-24.3,9.1-40.9,35-43.4,59.7C-1,163.8,13.9,187.9,38,200.5c29.1,15.4,75.8,8.8,89,39.8,3.2,7.5,2.9,22.1-3.3,30.9-11.1,14.1-26.8,18.3-45.3,16.2,0,0-21.7-3-34.6-12.8-18.5-14.1-23.9-32.8-26.3-53.8l-11.2-.1c2.6,26.6.1,53.3-3.6,78.4l9.4,1a63.837,63.837,0,0,1,5.2-10.6,6.783,6.783,0,0,1,8.5-.9c32.7,22.5,85.6,22.3,116.3,1.6,21.1-15.6,28.6-39.1,22.5-63.5-14-49.1-70.3-43.6-107-60.6-12.2-4.8-24.5-16.7-24.6-31-0.2-14.8,5.8-26.8,18.1-35.3a23.583,23.583,0,0,1,10.4-3.5c-10,10.3-16.1,22.1-14.4,37.1,1.3,12.1,11.8,23.8,23.4,27.3,11.4,3.1,21.6-1.4,30.1-8l-1-5.2a34.544,34.544,0,0,1-16.3.1c-10.2-3.7-14-13.7-13.1-23.9,0.8-4.4,4.3-7.4,9.4-6.1,25.1,10.4,20.6,43.8,44.3,55.6,7.9,2.9,15.3.3,20.3-3.2,12.4-8.8,16.9-20.3,20.3-34.2-6.7,7.5-12.7,15.6-22.6,17.5-4.9,1.1-7.5.1-10.4-4.2-9.7-15.5-12.8-41.3-35.6-43.6-4.4.1-5.6-.4-13.8,0.9,5.8-4.7,12.8-9.4,20.6-9.5,11.5-.4,23.1,7.4,27.6,15.3,2.3,4.3,1.5,11.4-1.6,15.5l5.2,3.9c8.6-11.1,27-25.2,26.8-34.6-1.5-18.2-29-29.3-45.3-35.8,0,0,2.8-7.2,1.4-12.5-3.2-7.3-9.9-8.4-16.4-10.2-11.9-3.4-31-4.9-39.7-12.6C51.9,18.1,56,9.7,58.1.9,35.3,25.1,34.1,28.3,34.1,28.3Zm71.7,38.2a16.748,16.748,0,0,1,6.9,6.8l-24.9-4C92.7,65.8,100,62.9,105.8,66.5Z" transform="translate(-0.6 -0.9)"/><path class="a" d="M252.2,114a18.366,18.366,0,0,0-2.4-1.6,51.505,51.505,0,0,0-4.8-2.5,46.133,46.133,0,0,0-6.3-2.3,27.4,27.4,0,0,0-6.9-1c-3,0-5.3.5-6.9,1.6a5.4,5.4,0,0,0-2.4,4.7,4.771,4.771,0,0,0,1.1,3.2,8.643,8.643,0,0,0,3.1,2.3,29.578,29.578,0,0,0,4.9,1.9c2,0.6,4.2,1.2,6.8,1.9a88.212,88.212,0,0,1,9.9,3.3,27.469,27.469,0,0,1,7.5,4.4,17.714,17.714,0,0,1,4.8,6.4,22.229,22.229,0,0,1,1.7,9,22.8,22.8,0,0,1-2.4,10.9,19.4,19.4,0,0,1-6.4,7.2,27.355,27.355,0,0,1-9.2,4,47.432,47.432,0,0,1-10.7,1.2,63.44,63.44,0,0,1-25.2-5.5,39.169,39.169,0,0,1-7.3-4l7.7-15.4a20.355,20.355,0,0,0,2.9,2,44.032,44.032,0,0,0,5.8,3,62.641,62.641,0,0,0,7.7,2.7,32.587,32.587,0,0,0,8.7,1.2q9.3,0,9.3-5.7a4.826,4.826,0,0,0-1.4-3.5,11.935,11.935,0,0,0-3.9-2.5,35.384,35.384,0,0,0-5.8-2.1c-2.2-.6-4.7-1.4-7.3-2.2a57.92,57.92,0,0,1-9.1-3.5,24.05,24.05,0,0,1-6.4-4.4,14.665,14.665,0,0,1-3.8-5.7,21.457,21.457,0,0,1-1.2-7.5,23.639,23.639,0,0,1,2.3-10.6,22.322,22.322,0,0,1,6.1-7.8,27.778,27.778,0,0,1,9-4.8,34.855,34.855,0,0,1,10.8-1.6,42.553,42.553,0,0,1,8,.8,57.228,57.228,0,0,1,7.4,1.9,65.025,65.025,0,0,1,6.6,2.7c2.1,1,3.9,2,5.6,3Z" transform="translate(-0.6 -0.9)"/><path class="a" d="M286.5,169c-5.7,0-10.1-1.8-13.1-5.4s-4.5-8.9-4.5-16V111.5h17.2v32.3c0,3.4.7,6.1,2,7.9a6.9,6.9,0,0,0,5.8,2.7,13.756,13.756,0,0,0,6.7-1.8c2.2-1.2,4-3.3,5.7-6.3V111.5h17.2v37.1c0,1.7.3,2.9,1,3.6a4.883,4.883,0,0,0,3.4,1.2v14.5a31.542,31.542,0,0,1-4.7.7c-1.3.1-2.5,0.2-3.5,0.2-6-.1-9.5-2.5-10.4-7.2l-0.3-3.4a23.52,23.52,0,0,1-9.6,8.2A31.959,31.959,0,0,1,286.5,169Z" transform="translate(-0.6 -0.9)"/><path class="a" d="M390.7,167.9H373.5V136.2q0-5.55-2.1-8.1a6.7,6.7,0,0,0-5.5-2.5,9.71,9.71,0,0,0-3.7.7,12.537,12.537,0,0,0-3.5,2.1,23.621,23.621,0,0,0-3.1,3.2,13.873,13.873,0,0,0-2.1,4v32.3H336.3V111.5h15.5V121a20.258,20.258,0,0,1,8.8-7.8,30.367,30.367,0,0,1,13.1-2.7,17.768,17.768,0,0,1,8.9,2,13.01,13.01,0,0,1,5.2,5.2,20.219,20.219,0,0,1,2.4,6.9,45.866,45.866,0,0,1,.6,7.3v36h-0.1Z" transform="translate(-0.6 -0.9)"/><path class="a" d="M424.3,169a25.3,25.3,0,0,1-10.7-2.2,23.592,23.592,0,0,1-8.4-6.2,26.99,26.99,0,0,1-5.5-9.3,33.385,33.385,0,0,1-2-11.7,35.985,35.985,0,0,1,1.8-11.5,26.39,26.39,0,0,1,5.2-9.3,24.987,24.987,0,0,1,7.9-6.2,22.278,22.278,0,0,1,10-2.3,20.251,20.251,0,0,1,10.6,2.8,19.722,19.722,0,0,1,7.4,7.5V89.5h17.2v59.1c0,1.7.3,2.9,1,3.6a4.883,4.883,0,0,0,3.4,1.2v14.5a31.542,31.542,0,0,1-4.7.7c-1.3.1-2.5,0.2-3.6,0.2-6-.1-9.5-2.5-10.3-7.2l-0.3-3a19.81,19.81,0,0,1-8.2,7.8A22.111,22.111,0,0,1,424.3,169Zm4.6-14.5a12.344,12.344,0,0,0,6.8-2.1,15.67,15.67,0,0,0,5.1-5.7V134.9a15.231,15.231,0,0,0-5.2-7,12.337,12.337,0,0,0-7.5-2.7,10.667,10.667,0,0,0-5.1,1.2,12.628,12.628,0,0,0-4,3.3,15.352,15.352,0,0,0-2.6,4.7,17.906,17.906,0,0,0-.9,5.7,14.793,14.793,0,0,0,3.8,10.4A12.174,12.174,0,0,0,428.9,154.5Z" transform="translate(-0.6 -0.9)"/><path class="a" d="M494.3,169a64.173,64.173,0,0,1-7.4-.5c-2.5-.4-5.1-0.8-7.6-1.4a55,55,0,0,1-7.2-2.3,33.541,33.541,0,0,1-6-3l6.8-11.6a54.761,54.761,0,0,0,10.9,4.9,33.939,33.939,0,0,0,10.1,1.7,10.994,10.994,0,0,0,5.7-1.2,3.792,3.792,0,0,0,2-3.4c0-1.5-.9-2.7-2.7-3.5a76.176,76.176,0,0,0-9.2-3c-3.8-1-7-2-9.7-3a22.4,22.4,0,0,1-6.4-3.4,12.273,12.273,0,0,1-3.5-4.2,13.631,13.631,0,0,1-1.1-5.6,16.609,16.609,0,0,1,1.8-7.8,16.852,16.852,0,0,1,4.9-6,23.665,23.665,0,0,1,7.4-3.9,30.25,30.25,0,0,1,9.3-1.4,43.29,43.29,0,0,1,12.1,1.8,65.316,65.316,0,0,1,12.1,4.9L509.8,128a48.987,48.987,0,0,0-9.4-4.2,25.707,25.707,0,0,0-8-1.3,11.891,11.891,0,0,0-5.3,1.1,3.893,3.893,0,0,0-2.1,3.6,4.228,4.228,0,0,0,.5,2,5.692,5.692,0,0,0,1.8,1.5,13.3,13.3,0,0,0,3.3,1.3c1.4,0.4,3,.8,5,1.3a97.663,97.663,0,0,1,10.5,3.2,30.244,30.244,0,0,1,7,3.6,11.355,11.355,0,0,1,3.9,4.6,14.433,14.433,0,0,1,1.2,6.1,17.307,17.307,0,0,1-1.7,7.6,14.7,14.7,0,0,1-4.8,5.7,23.9,23.9,0,0,1-7.5,3.7A38.371,38.371,0,0,1,494.3,169Z" transform="translate(-0.6 -0.9)"/><path class="a" d="M538.6,167.9l-20-56.4h17.6l12.4,42.7,12.5-42.7h16.1l-20,56.4H538.6Z" transform="translate(-0.6 -0.9)"/><path class="a" d="M597,169a24.527,24.527,0,0,1-7.8-1.3,17.012,17.012,0,0,1-6.2-3.8,18.06,18.06,0,0,1-4.1-5.7,17.065,17.065,0,0,1-1.5-7.1,16.083,16.083,0,0,1,1.8-7.6,16.628,16.628,0,0,1,5-5.9,27.183,27.183,0,0,1,7.6-3.9,33.124,33.124,0,0,1,9.8-1.4,38.519,38.519,0,0,1,6.9.6,21.993,21.993,0,0,1,5.8,1.8v-2.6c0-6.5-3.8-9.8-11.3-9.8a23.687,23.687,0,0,0-8.8,1.6,40.04,40.04,0,0,0-8.8,4.7l-5-10.7a45.515,45.515,0,0,1,11.6-5.5,44.494,44.494,0,0,1,12.8-1.8q12.75,0,19.8,6c4.7,4,7,9.9,7,17.6v14.5c0,1.7.3,2.9,1,3.6a4.883,4.883,0,0,0,3.4,1.2V168a28.66,28.66,0,0,1-4.6.7c-1.4.1-2.6,0.2-3.7,0.2-3.2-.1-5.6-0.7-7.2-1.9a8.183,8.183,0,0,1-3.1-5.3L617,159a25.561,25.561,0,0,1-9,7.4A23.73,23.73,0,0,1,597,169Zm5-12.3a14.007,14.007,0,0,0,5.4-1,11.956,11.956,0,0,0,4.4-2.6c1.6-1.3,2.5-2.6,2.5-4.1v-5.4a23.394,23.394,0,0,0-4.9-1.3,30.149,30.149,0,0,0-4.9-.5,13.533,13.533,0,0,0-7.8,2.1,6.656,6.656,0,0,0-3.1,5.6,6.257,6.257,0,0,0,2.4,5.1A8.782,8.782,0,0,0,602,156.7Z" transform="translate(-0.6 -0.9)"/><path class="a" d="M643.1,89.5h17.2v57.4c0,4.3,1.9,6.4,5.6,6.4a9.3,9.3,0,0,0,2.7-.4,11.674,11.674,0,0,0,2.8-1.1l2.3,13.9a33.841,33.841,0,0,1-7.4,2.4,37.233,37.233,0,0,1-7.7.9c-4.9,0-8.8-1.3-11.4-3.9-2.7-2.6-4-6.3-4-11.2V89.5h-0.1Z" transform="translate(-0.6 -0.9)"/><path class="a" d="M678.4,89.5h17.2v57.4c0,4.3,1.9,6.4,5.6,6.4a9.3,9.3,0,0,0,2.7-.4,11.674,11.674,0,0,0,2.8-1.1l2.3,13.9a33.841,33.841,0,0,1-7.4,2.4,37.233,37.233,0,0,1-7.7.9c-4.9,0-8.8-1.3-11.4-3.9-2.7-2.6-4-6.3-4-11.2V89.5h-0.1Z" transform="translate(-0.6 -0.9)"/><path class="a" d="M737.5,169a64.173,64.173,0,0,1-7.4-.5c-2.5-.4-5.1-0.8-7.6-1.4a55,55,0,0,1-7.2-2.3,33.541,33.541,0,0,1-6-3l6.8-11.6a54.761,54.761,0,0,0,10.9,4.9,33.939,33.939,0,0,0,10.1,1.7,10.994,10.994,0,0,0,5.7-1.2,3.792,3.792,0,0,0,2-3.4c0-1.5-.9-2.7-2.7-3.5a76.178,76.178,0,0,0-9.2-3c-3.8-1-7-2-9.7-3a22.4,22.4,0,0,1-6.4-3.4,12.273,12.273,0,0,1-3.5-4.2,13.631,13.631,0,0,1-1.1-5.6,16.609,16.609,0,0,1,1.8-7.8,16.851,16.851,0,0,1,4.9-6,23.664,23.664,0,0,1,7.4-3.9,30.251,30.251,0,0,1,9.3-1.4,43.289,43.289,0,0,1,12.1,1.8,65.316,65.316,0,0,1,12.1,4.9L753,128a48.985,48.985,0,0,0-9.4-4.2,25.708,25.708,0,0,0-8-1.3,11.891,11.891,0,0,0-5.3,1.1,3.893,3.893,0,0,0-2.1,3.6,4.228,4.228,0,0,0,.5,2,5.693,5.693,0,0,0,1.8,1.5,13.3,13.3,0,0,0,3.3,1.3c1.4,0.4,3,.8,5,1.3a97.663,97.663,0,0,1,10.5,3.2,30.243,30.243,0,0,1,7,3.6,11.355,11.355,0,0,1,3.9,4.6,14.433,14.433,0,0,1,1.2,6.1,17.307,17.307,0,0,1-1.7,7.6,14.7,14.7,0,0,1-4.8,5.7,23.9,23.9,0,0,1-7.5,3.7A37.294,37.294,0,0,1,737.5,169Z" transform="translate(-0.6 -0.9)"/><path class="a" d="M242.8,266.6L228,243.9l-6,6.2v16.4H204.8V188.1H222v45.4l19.1-23.4h18.3l-20.3,24.3L261,266.5H242.8v0.1Z" transform="translate(-0.6 -0.9)"/><path class="a" d="M289,267.6a32.113,32.113,0,0,1-12.8-2.4,27.914,27.914,0,0,1-9.5-6.4,28.313,28.313,0,0,1-5.9-9.3,32.07,32.07,0,0,1-2-11.1,31.652,31.652,0,0,1,2-11.1,25.889,25.889,0,0,1,5.9-9.3,27.913,27.913,0,0,1,9.5-6.4,32.458,32.458,0,0,1,12.8-2.4,32.113,32.113,0,0,1,12.8,2.4,30.545,30.545,0,0,1,9.5,6.4,28.313,28.313,0,0,1,5.9,9.3,29.9,29.9,0,0,1,2,11.1,31.652,31.652,0,0,1-2,11.1,25.889,25.889,0,0,1-5.9,9.3,27.913,27.913,0,0,1-9.5,6.4A32.458,32.458,0,0,1,289,267.6Zm-12.6-29.2a16.02,16.02,0,0,0,3.5,10.7,11.5,11.5,0,0,0,9,4,11.522,11.522,0,0,0,8.8-4.1,13.327,13.327,0,0,0,2.6-4.7,18.854,18.854,0,0,0,1-6,16.02,16.02,0,0,0-3.5-10.7,11.3,11.3,0,0,0-8.9-4,11.942,11.942,0,0,0-9,4.1,13.327,13.327,0,0,0-2.6,4.7A19.808,19.808,0,0,0,276.4,238.4Z" transform="translate(-0.6 -0.9)"/><path class="a" d="M415.5,266.6H398.3V234.9c0-3.7-.7-6.4-2-8.1a6.317,6.317,0,0,0-5.3-2.5,10.106,10.106,0,0,0-6.7,2.8,16.358,16.358,0,0,0-4.8,7.2v32.3H362.3V234.9c0-3.7-.7-6.4-2-8.1a6.317,6.317,0,0,0-5.3-2.5,10.475,10.475,0,0,0-6.7,2.7,15.122,15.122,0,0,0-4.8,7.3v32.3H326.3V210.2h15.5v9.5a20.64,20.64,0,0,1,8.5-7.8,27.4,27.4,0,0,1,12.5-2.7,19.093,19.093,0,0,1,6.1.9,15.4,15.4,0,0,1,4.6,2.4,12.816,12.816,0,0,1,3.1,3.5,15.674,15.674,0,0,1,1.8,4.2,21.772,21.772,0,0,1,8.4-8.1,24.726,24.726,0,0,1,12-2.8,16.329,16.329,0,0,1,8.6,2,13.408,13.408,0,0,1,5.1,5.2,20.219,20.219,0,0,1,2.4,6.9,45.866,45.866,0,0,1,.6,7.3v35.9Z" transform="translate(-0.6 -0.9)"/><path class="a" d="M514.8,266.6H497.6V234.9c0-3.7-.7-6.4-2-8.1a6.317,6.317,0,0,0-5.3-2.5,10.106,10.106,0,0,0-6.7,2.8,16.358,16.358,0,0,0-4.8,7.2v32.3H461.6V234.9c0-3.7-.7-6.4-2-8.1a6.317,6.317,0,0,0-5.3-2.5,10.475,10.475,0,0,0-6.7,2.7,15.122,15.122,0,0,0-4.8,7.3v32.3H425.6V210.2h15.5v9.5a20.64,20.64,0,0,1,8.5-7.8,27.4,27.4,0,0,1,12.5-2.7,19.093,19.093,0,0,1,6.1.9,15.4,15.4,0,0,1,4.6,2.4,12.816,12.816,0,0,1,3.1,3.5,15.674,15.674,0,0,1,1.8,4.2,21.772,21.772,0,0,1,8.4-8.1,24.726,24.726,0,0,1,12-2.8,16.329,16.329,0,0,1,8.6,2,13.408,13.408,0,0,1,5.1,5.2,20.22,20.22,0,0,1,2.4,6.9,45.862,45.862,0,0,1,.6,7.3v35.9Z" transform="translate(-0.6 -0.9)"/><path class="a" d="M542.1,267.6c-5.7,0-10.1-1.8-13.1-5.4s-4.5-8.9-4.5-16V210.1h17.2v32.3c0,3.4.7,6.1,2,7.9a6.9,6.9,0,0,0,5.8,2.7,13.756,13.756,0,0,0,6.7-1.8,16.14,16.14,0,0,0,5.7-6.3V210.1H579v37.1c0,1.7.3,2.9,1,3.6a4.883,4.883,0,0,0,3.4,1.2v14.5a31.545,31.545,0,0,1-4.7.7c-1.4.1-2.5,0.2-3.5,0.2-6-.1-9.5-2.5-10.4-7.2l-0.3-3.4a23.52,23.52,0,0,1-9.6,8.2A29.6,29.6,0,0,1,542.1,267.6Z" transform="translate(-0.6 -0.9)"/><path class="a" d="M646.3,266.6H629.1V234.9q0-5.55-2.1-8.1a6.7,6.7,0,0,0-5.5-2.5,9.71,9.71,0,0,0-3.7.7,12.537,12.537,0,0,0-3.5,2.1,23.623,23.623,0,0,0-3.1,3.2,13.872,13.872,0,0,0-2.1,4v32.3H591.9V210.2h15.5v9.5a20.258,20.258,0,0,1,8.8-7.8,30.367,30.367,0,0,1,13.1-2.7,17.768,17.768,0,0,1,8.9,2,13.01,13.01,0,0,1,5.2,5.2,20.22,20.22,0,0,1,2.4,6.9,45.862,45.862,0,0,1,.6,7.3v36h-0.1Z" transform="translate(-0.6 -0.9)"/></svg>